<mxfile host="app.diagrams.net" modified="2022-02-24T04:10:57.497Z" agent="5.0 (Macintosh; Intel Mac OS X 10_15_7) AppleWebKit/537.36 (KHTML, like Gecko) Chrome/98.0.4758.102 Safari/537.36" etag="AfuIJpxpJlP3VQjvTc8U" version="16.3.0" type="github">
  <diagram id="RZ9pA3qlwdbwVLFjEw_k" name="Page-1">
    <mxGraphModel dx="1554" dy="866" grid="1" gridSize="10" guides="1" tooltips="1" connect="1" arrows="1" fold="1" page="1" pageScale="1" pageWidth="827" pageHeight="1169" math="0" shadow="0">
      <root>
        <mxCell id="0" />
        <mxCell id="1" parent="0" />
        <mxCell id="PCAq63UFogYoL67APsC8-54" value="Basic" style="text;html=1;strokeColor=none;fillColor=none;align=center;verticalAlign=middle;whiteSpace=wrap;rounded=0;fontSize=11;" parent="1" vertex="1">
          <mxGeometry x="272.5" y="620" width="60" height="30" as="geometry" />
        </mxCell>
        <mxCell id="qock-VG174k8fUYrO86y-8" value="" style="rounded=0;whiteSpace=wrap;html=1;fillColor=#FFFFFF;" vertex="1" parent="1">
          <mxGeometry x="240" y="220" width="650" height="420" as="geometry" />
        </mxCell>
        <mxCell id="PCAq63UFogYoL67APsC8-3" value="" style="rounded=0;whiteSpace=wrap;html=1;fontSize=11;" parent="1" vertex="1">
          <mxGeometry x="760" y="330" width="120" height="35" as="geometry" />
        </mxCell>
        <mxCell id="PCAq63UFogYoL67APsC8-4" value="" style="edgeStyle=orthogonalEdgeStyle;rounded=0;orthogonalLoop=1;jettySize=auto;html=1;fontSize=11;strokeWidth=2;" parent="1" source="PCAq63UFogYoL67APsC8-5" target="PCAq63UFogYoL67APsC8-94" edge="1">
          <mxGeometry relative="1" as="geometry">
            <Array as="points">
              <mxPoint x="820" y="280" />
              <mxPoint x="400" y="280" />
            </Array>
          </mxGeometry>
        </mxCell>
        <mxCell id="PCAq63UFogYoL67APsC8-5" value="Sample Generator" style="text;html=1;align=center;verticalAlign=middle;whiteSpace=wrap;rounded=0;fontSize=11;" parent="1" vertex="1">
          <mxGeometry x="760" y="332.5" width="120" height="30" as="geometry" />
        </mxCell>
        <mxCell id="PCAq63UFogYoL67APsC8-6" value="" style="ellipse;whiteSpace=wrap;html=1;aspect=fixed;fontSize=6;fillColor=#647687;fontColor=#ffffff;strokeColor=#314354;direction=west;" parent="1" vertex="1">
          <mxGeometry x="280" y="600" width="10" height="10" as="geometry" />
        </mxCell>
        <mxCell id="PCAq63UFogYoL67APsC8-7" value="" style="ellipse;whiteSpace=wrap;html=1;aspect=fixed;fontSize=6;fillColor=#999999;fontColor=#ffffff;strokeColor=#314354;direction=west;" parent="1" vertex="1">
          <mxGeometry x="300" y="600" width="10" height="10" as="geometry" />
        </mxCell>
        <mxCell id="PCAq63UFogYoL67APsC8-8" value="" style="ellipse;whiteSpace=wrap;html=1;aspect=fixed;fontSize=6;fillColor=#E6E6E6;fontColor=#ffffff;strokeColor=#314354;direction=west;" parent="1" vertex="1">
          <mxGeometry x="320" y="600" width="10" height="10" as="geometry" />
        </mxCell>
        <mxCell id="PCAq63UFogYoL67APsC8-9" value="" style="rounded=0;whiteSpace=wrap;html=1;fillColor=#647687;fontColor=#ffffff;strokeColor=#314354;" parent="1" vertex="1">
          <mxGeometry x="280" y="580" width="10" height="10" as="geometry" />
        </mxCell>
        <mxCell id="PCAq63UFogYoL67APsC8-10" value="" style="rounded=0;whiteSpace=wrap;html=1;fillColor=#647687;fontColor=#ffffff;strokeColor=#314354;" parent="1" vertex="1">
          <mxGeometry x="280" y="550" width="10" height="10" as="geometry" />
        </mxCell>
        <mxCell id="PCAq63UFogYoL67APsC8-11" value="" style="rounded=0;whiteSpace=wrap;html=1;fillColor=#647687;fontColor=#ffffff;strokeColor=#314354;" parent="1" vertex="1">
          <mxGeometry x="280" y="560" width="10" height="10" as="geometry" />
        </mxCell>
        <mxCell id="PCAq63UFogYoL67APsC8-12" value="" style="rounded=0;whiteSpace=wrap;html=1;fillColor=#647687;fontColor=#ffffff;strokeColor=#314354;" parent="1" vertex="1">
          <mxGeometry x="280" y="570" width="10" height="10" as="geometry" />
        </mxCell>
        <mxCell id="PCAq63UFogYoL67APsC8-13" value="" style="rounded=0;whiteSpace=wrap;html=1;fillColor=#999999;fontColor=#ffffff;strokeColor=#314354;" parent="1" vertex="1">
          <mxGeometry x="300" y="580" width="10" height="10" as="geometry" />
        </mxCell>
        <mxCell id="PCAq63UFogYoL67APsC8-14" value="" style="rounded=0;whiteSpace=wrap;html=1;fillColor=#999999;fontColor=#ffffff;strokeColor=#314354;" parent="1" vertex="1">
          <mxGeometry x="300" y="570" width="10" height="10" as="geometry" />
        </mxCell>
        <mxCell id="PCAq63UFogYoL67APsC8-15" value="" style="rounded=0;whiteSpace=wrap;html=1;fillColor=#999999;fontColor=#ffffff;strokeColor=#314354;" parent="1" vertex="1">
          <mxGeometry x="300" y="550" width="10" height="10" as="geometry" />
        </mxCell>
        <mxCell id="PCAq63UFogYoL67APsC8-16" value="" style="rounded=0;whiteSpace=wrap;html=1;fillColor=#999999;fontColor=#ffffff;strokeColor=#314354;" parent="1" vertex="1">
          <mxGeometry x="300" y="560" width="10" height="10" as="geometry" />
        </mxCell>
        <mxCell id="PCAq63UFogYoL67APsC8-17" value="" style="rounded=0;whiteSpace=wrap;html=1;fillColor=#E6E6E6;fontColor=#ffffff;strokeColor=#314354;" parent="1" vertex="1">
          <mxGeometry x="320" y="550" width="10" height="10" as="geometry" />
        </mxCell>
        <mxCell id="PCAq63UFogYoL67APsC8-18" value="" style="rounded=0;whiteSpace=wrap;html=1;fillColor=#E6E6E6;fontColor=#ffffff;strokeColor=#314354;" parent="1" vertex="1">
          <mxGeometry x="320" y="580" width="10" height="10" as="geometry" />
        </mxCell>
        <mxCell id="PCAq63UFogYoL67APsC8-19" value="" style="rounded=0;whiteSpace=wrap;html=1;fillColor=#E6E6E6;fontColor=#ffffff;strokeColor=#314354;" parent="1" vertex="1">
          <mxGeometry x="320" y="570" width="10" height="10" as="geometry" />
        </mxCell>
        <mxCell id="PCAq63UFogYoL67APsC8-20" value="" style="rounded=0;whiteSpace=wrap;html=1;fillColor=#E6E6E6;fontColor=#ffffff;strokeColor=#314354;" parent="1" vertex="1">
          <mxGeometry x="320" y="560" width="10" height="10" as="geometry" />
        </mxCell>
        <mxCell id="PCAq63UFogYoL67APsC8-21" value="" style="shape=curlyBracket;whiteSpace=wrap;html=1;rounded=1;flipH=1;fillColor=#E6E6E6;gradientColor=#ffffff;rotation=-90;" parent="1" vertex="1">
          <mxGeometry x="295" y="510" width="20" height="50" as="geometry" />
        </mxCell>
        <mxCell id="PCAq63UFogYoL67APsC8-22" value="" style="shape=orEllipse;perimeter=ellipsePerimeter;whiteSpace=wrap;html=1;backgroundOutline=1;fontSize=15;" parent="1" vertex="1">
          <mxGeometry x="297.5" y="510" width="15" height="10" as="geometry" />
        </mxCell>
        <mxCell id="PCAq63UFogYoL67APsC8-23" value="" style="rounded=0;whiteSpace=wrap;html=1;fillColor=#647687;fontColor=#ffffff;strokeColor=#314354;" parent="1" vertex="1">
          <mxGeometry x="255.63" y="490" width="10" height="10" as="geometry" />
        </mxCell>
        <mxCell id="PCAq63UFogYoL67APsC8-24" value="" style="rounded=0;whiteSpace=wrap;html=1;fillColor=#999999;fontColor=#ffffff;strokeColor=#314354;" parent="1" vertex="1">
          <mxGeometry x="287.5" y="490" width="10" height="10" as="geometry" />
        </mxCell>
        <mxCell id="PCAq63UFogYoL67APsC8-25" value="" style="rounded=0;whiteSpace=wrap;html=1;fillColor=#999999;fontColor=#ffffff;strokeColor=#314354;" parent="1" vertex="1">
          <mxGeometry x="297.5" y="490" width="10" height="10" as="geometry" />
        </mxCell>
        <mxCell id="PCAq63UFogYoL67APsC8-26" value="" style="rounded=0;whiteSpace=wrap;html=1;fillColor=#E6E6E6;fontColor=#ffffff;strokeColor=#314354;" parent="1" vertex="1">
          <mxGeometry x="317.5" y="490" width="10" height="10" as="geometry" />
        </mxCell>
        <mxCell id="PCAq63UFogYoL67APsC8-27" value="" style="rounded=0;whiteSpace=wrap;html=1;fillColor=#E6E6E6;fontColor=#ffffff;strokeColor=#314354;" parent="1" vertex="1">
          <mxGeometry x="327.5" y="490" width="10" height="10" as="geometry" />
        </mxCell>
        <mxCell id="PCAq63UFogYoL67APsC8-28" value="" style="rounded=0;whiteSpace=wrap;html=1;fillColor=#E6E6E6;fontColor=#ffffff;strokeColor=#314354;" parent="1" vertex="1">
          <mxGeometry x="337.5" y="490" width="10" height="10" as="geometry" />
        </mxCell>
        <mxCell id="PCAq63UFogYoL67APsC8-29" value="" style="rounded=0;whiteSpace=wrap;html=1;fillColor=#E6E6E6;fontColor=#ffffff;strokeColor=#314354;" parent="1" vertex="1">
          <mxGeometry x="300" y="420" width="10" height="10" as="geometry" />
        </mxCell>
        <mxCell id="PCAq63UFogYoL67APsC8-30" value="" style="rounded=0;whiteSpace=wrap;html=1;fillColor=#647687;fontColor=#ffffff;strokeColor=#314354;" parent="1" vertex="1">
          <mxGeometry x="265.63" y="490" width="10" height="10" as="geometry" />
        </mxCell>
        <mxCell id="PCAq63UFogYoL67APsC8-31" value="" style="rounded=0;whiteSpace=wrap;html=1;fillColor=#647687;fontColor=#ffffff;strokeColor=#314354;" parent="1" vertex="1">
          <mxGeometry x="275.63" y="490" width="10" height="10" as="geometry" />
        </mxCell>
        <mxCell id="PCAq63UFogYoL67APsC8-32" value="" style="rounded=0;whiteSpace=wrap;html=1;fillColor=#999999;fontColor=#ffffff;strokeColor=#314354;" parent="1" vertex="1">
          <mxGeometry x="307.5" y="490" width="10" height="10" as="geometry" />
        </mxCell>
        <mxCell id="PCAq63UFogYoL67APsC8-33" value="MLP Layer" style="rounded=0;whiteSpace=wrap;html=1;fontSize=15;" parent="1" vertex="1">
          <mxGeometry x="262.03" y="460" width="80.94" height="20" as="geometry" />
        </mxCell>
        <mxCell id="PCAq63UFogYoL67APsC8-34" value="" style="rounded=0;whiteSpace=wrap;html=1;fillColor=#647687;fontColor=#ffffff;strokeColor=#314354;" parent="1" vertex="1">
          <mxGeometry x="300" y="410" width="10" height="10" as="geometry" />
        </mxCell>
        <mxCell id="PCAq63UFogYoL67APsC8-35" value="" style="rounded=0;whiteSpace=wrap;html=1;fillColor=#999999;fontColor=#ffffff;strokeColor=#314354;" parent="1" vertex="1">
          <mxGeometry x="300" y="430" width="10" height="10" as="geometry" />
        </mxCell>
        <mxCell id="PCAq63UFogYoL67APsC8-36" value="" style="rounded=0;whiteSpace=wrap;html=1;fillColor=#E6E6E6;fontColor=#ffffff;strokeColor=#314354;" parent="1" vertex="1">
          <mxGeometry x="300" y="440" width="10" height="10" as="geometry" />
        </mxCell>
        <mxCell id="PCAq63UFogYoL67APsC8-37" value="" style="ellipse;whiteSpace=wrap;html=1;aspect=fixed;fontSize=6;fillColor=#A680B8;fontColor=#ffffff;strokeColor=#314354;direction=west;" parent="1" vertex="1">
          <mxGeometry x="380" y="470" width="10" height="10" as="geometry" />
        </mxCell>
        <mxCell id="PCAq63UFogYoL67APsC8-38" value="" style="ellipse;whiteSpace=wrap;html=1;aspect=fixed;fontSize=6;fillColor=#FF9933;fontColor=#ffffff;strokeColor=#314354;direction=west;" parent="1" vertex="1">
          <mxGeometry x="400" y="470" width="10" height="10" as="geometry" />
        </mxCell>
        <mxCell id="PCAq63UFogYoL67APsC8-39" value="" style="ellipse;whiteSpace=wrap;html=1;aspect=fixed;fontSize=6;fillColor=#E6FFCC;fontColor=#ffffff;strokeColor=#314354;direction=west;" parent="1" vertex="1">
          <mxGeometry x="420" y="470" width="10" height="10" as="geometry" />
        </mxCell>
        <mxCell id="PCAq63UFogYoL67APsC8-40" value="" style="rounded=0;whiteSpace=wrap;html=1;fillColor=#A680B8;fontColor=#ffffff;strokeColor=#314354;" parent="1" vertex="1">
          <mxGeometry x="380" y="440" width="10" height="10" as="geometry" />
        </mxCell>
        <mxCell id="PCAq63UFogYoL67APsC8-41" value="" style="rounded=0;whiteSpace=wrap;html=1;fillColor=#A680B8;fontColor=#ffffff;strokeColor=#314354;" parent="1" vertex="1">
          <mxGeometry x="380" y="430" width="10" height="10" as="geometry" />
        </mxCell>
        <mxCell id="PCAq63UFogYoL67APsC8-42" value="" style="rounded=0;whiteSpace=wrap;html=1;fillColor=#A680B8;fontColor=#ffffff;strokeColor=#314354;" parent="1" vertex="1">
          <mxGeometry x="380" y="420" width="10" height="10" as="geometry" />
        </mxCell>
        <mxCell id="PCAq63UFogYoL67APsC8-43" value="" style="rounded=0;whiteSpace=wrap;html=1;fillColor=#FF9933;fontColor=#ffffff;strokeColor=#314354;" parent="1" vertex="1">
          <mxGeometry x="400" y="440" width="10" height="10" as="geometry" />
        </mxCell>
        <mxCell id="PCAq63UFogYoL67APsC8-44" value="" style="rounded=0;whiteSpace=wrap;html=1;fillColor=#FF9933;fontColor=#ffffff;strokeColor=#314354;" parent="1" vertex="1">
          <mxGeometry x="400" y="430" width="10" height="10" as="geometry" />
        </mxCell>
        <mxCell id="PCAq63UFogYoL67APsC8-45" value="" style="rounded=0;whiteSpace=wrap;html=1;fillColor=#FF9933;fontColor=#ffffff;strokeColor=#314354;" parent="1" vertex="1">
          <mxGeometry x="400" y="410" width="10" height="10" as="geometry" />
        </mxCell>
        <mxCell id="PCAq63UFogYoL67APsC8-46" value="" style="rounded=0;whiteSpace=wrap;html=1;fillColor=#E6FFCC;fontColor=#ffffff;strokeColor=#314354;" parent="1" vertex="1">
          <mxGeometry x="420" y="440" width="10" height="10" as="geometry" />
        </mxCell>
        <mxCell id="PCAq63UFogYoL67APsC8-47" value="" style="rounded=0;whiteSpace=wrap;html=1;fillColor=#E6FFCC;fontColor=#ffffff;strokeColor=#314354;" parent="1" vertex="1">
          <mxGeometry x="420" y="430" width="10" height="10" as="geometry" />
        </mxCell>
        <mxCell id="PCAq63UFogYoL67APsC8-48" value="" style="rounded=0;whiteSpace=wrap;html=1;fillColor=#E6FFCC;fontColor=#ffffff;strokeColor=#314354;" parent="1" vertex="1">
          <mxGeometry x="420" y="410" width="10" height="10" as="geometry" />
        </mxCell>
        <mxCell id="PCAq63UFogYoL67APsC8-49" value="" style="rounded=0;whiteSpace=wrap;html=1;fillColor=#E6FFCC;fontColor=#ffffff;strokeColor=#314354;" parent="1" vertex="1">
          <mxGeometry x="420" y="420" width="10" height="10" as="geometry" />
        </mxCell>
        <mxCell id="PCAq63UFogYoL67APsC8-50" value="" style="rounded=0;whiteSpace=wrap;html=1;fillColor=#A680B8;fontColor=#ffffff;strokeColor=#314354;" parent="1" vertex="1">
          <mxGeometry x="380" y="410" width="10" height="10" as="geometry" />
        </mxCell>
        <mxCell id="PCAq63UFogYoL67APsC8-51" value="" style="rounded=0;whiteSpace=wrap;html=1;fillColor=#FF9933;fontColor=#ffffff;strokeColor=#314354;" parent="1" vertex="1">
          <mxGeometry x="400" y="420" width="10" height="10" as="geometry" />
        </mxCell>
        <mxCell id="PCAq63UFogYoL67APsC8-52" value="" style="rounded=0;whiteSpace=wrap;html=1;fontSize=11;" parent="1" vertex="1">
          <mxGeometry x="310" y="370" width="102.5" height="20" as="geometry" />
        </mxCell>
        <mxCell id="PCAq63UFogYoL67APsC8-53" value="&lt;font style=&quot;font-size: 11px&quot;&gt;Dynamic Routing&lt;/font&gt;" style="text;html=1;strokeColor=none;fillColor=none;align=center;verticalAlign=middle;whiteSpace=wrap;rounded=0;fontSize=15;" parent="1" vertex="1">
          <mxGeometry x="310" y="365" width="100" height="30" as="geometry" />
        </mxCell>
        <mxCell id="PCAq63UFogYoL67APsC8-55" value="Sequence" style="text;html=1;strokeColor=none;fillColor=none;align=center;verticalAlign=middle;whiteSpace=wrap;rounded=0;fontSize=11;" parent="1" vertex="1">
          <mxGeometry x="375" y="490" width="60" height="30" as="geometry" />
        </mxCell>
        <mxCell id="PCAq63UFogYoL67APsC8-56" value="" style="rounded=0;whiteSpace=wrap;html=1;fillColor=#E6FFCC;fontColor=#ffffff;strokeColor=#314354;" parent="1" vertex="1">
          <mxGeometry x="330" y="330" width="10" height="10" as="geometry" />
        </mxCell>
        <mxCell id="PCAq63UFogYoL67APsC8-57" value="" style="rounded=0;whiteSpace=wrap;html=1;fillColor=#647687;fontColor=#ffffff;strokeColor=#314354;" parent="1" vertex="1">
          <mxGeometry x="330" y="340" width="10" height="10" as="geometry" />
        </mxCell>
        <mxCell id="PCAq63UFogYoL67APsC8-58" value="" style="rounded=0;whiteSpace=wrap;html=1;fillColor=#A680B8;fontColor=#ffffff;strokeColor=#314354;" parent="1" vertex="1">
          <mxGeometry x="330" y="350" width="10" height="10" as="geometry" />
        </mxCell>
        <mxCell id="PCAq63UFogYoL67APsC8-59" value="" style="rounded=0;whiteSpace=wrap;html=1;fillColor=#FF9933;fontColor=#ffffff;strokeColor=#314354;" parent="1" vertex="1">
          <mxGeometry x="330" y="320" width="10" height="10" as="geometry" />
        </mxCell>
        <mxCell id="PCAq63UFogYoL67APsC8-60" value="" style="rounded=0;whiteSpace=wrap;html=1;fillColor=#E6E6E6;fontColor=#ffffff;strokeColor=#314354;" parent="1" vertex="1">
          <mxGeometry x="356.25" y="350" width="10" height="10" as="geometry" />
        </mxCell>
        <mxCell id="PCAq63UFogYoL67APsC8-61" value="" style="rounded=0;whiteSpace=wrap;html=1;fillColor=#E6FFCC;fontColor=#ffffff;strokeColor=#314354;" parent="1" vertex="1">
          <mxGeometry x="356.25" y="340" width="10" height="10" as="geometry" />
        </mxCell>
        <mxCell id="PCAq63UFogYoL67APsC8-62" value="" style="rounded=0;whiteSpace=wrap;html=1;fillColor=#999999;fontColor=#ffffff;strokeColor=#314354;" parent="1" vertex="1">
          <mxGeometry x="356.25" y="330" width="10" height="10" as="geometry" />
        </mxCell>
        <mxCell id="PCAq63UFogYoL67APsC8-63" value="" style="rounded=0;whiteSpace=wrap;html=1;fillColor=#A680B8;fontColor=#ffffff;strokeColor=#314354;" parent="1" vertex="1">
          <mxGeometry x="356.25" y="320" width="10" height="10" as="geometry" />
        </mxCell>
        <mxCell id="PCAq63UFogYoL67APsC8-64" value="" style="rounded=0;whiteSpace=wrap;html=1;fillColor=#999999;fontColor=#ffffff;strokeColor=#314354;" parent="1" vertex="1">
          <mxGeometry x="380" y="350" width="10" height="10" as="geometry" />
        </mxCell>
        <mxCell id="PCAq63UFogYoL67APsC8-65" value="" style="rounded=0;whiteSpace=wrap;html=1;fillColor=#FF9933;fontColor=#ffffff;strokeColor=#314354;" parent="1" vertex="1">
          <mxGeometry x="380" y="340" width="10" height="10" as="geometry" />
        </mxCell>
        <mxCell id="PCAq63UFogYoL67APsC8-66" value="" style="rounded=0;whiteSpace=wrap;html=1;fillColor=#E6FFCC;fontColor=#ffffff;strokeColor=#314354;" parent="1" vertex="1">
          <mxGeometry x="380" y="330" width="10" height="10" as="geometry" />
        </mxCell>
        <mxCell id="PCAq63UFogYoL67APsC8-67" value="" style="rounded=0;whiteSpace=wrap;html=1;fillColor=#647687;fontColor=#ffffff;strokeColor=#314354;" parent="1" vertex="1">
          <mxGeometry x="380" y="320" width="10" height="10" as="geometry" />
        </mxCell>
        <mxCell id="PCAq63UFogYoL67APsC8-68" value="User Tower" style="text;html=1;strokeColor=none;fillColor=none;align=center;verticalAlign=middle;whiteSpace=wrap;rounded=0;fontSize=11;" parent="1" vertex="1">
          <mxGeometry x="342.97" y="555" width="100" height="40" as="geometry" />
        </mxCell>
        <mxCell id="PCAq63UFogYoL67APsC8-71" value="" style="rounded=0;whiteSpace=wrap;html=1;fillColor=#A680B8;fontColor=#ffffff;strokeColor=#314354;" parent="1" vertex="1">
          <mxGeometry x="464" y="340" width="10" height="10" as="geometry" />
        </mxCell>
        <mxCell id="PCAq63UFogYoL67APsC8-72" value="" style="rounded=0;whiteSpace=wrap;html=1;fillColor=#A680B8;fontColor=#ffffff;strokeColor=#314354;" parent="1" vertex="1">
          <mxGeometry x="464" y="330" width="10" height="10" as="geometry" />
        </mxCell>
        <mxCell id="PCAq63UFogYoL67APsC8-73" value="" style="edgeStyle=orthogonalEdgeStyle;rounded=0;orthogonalLoop=1;jettySize=auto;html=1;fontSize=11;strokeWidth=2;" parent="1" source="PCAq63UFogYoL67APsC8-74" target="PCAq63UFogYoL67APsC8-93" edge="1">
          <mxGeometry relative="1" as="geometry">
            <Array as="points">
              <mxPoint x="469" y="310" />
              <mxPoint x="400" y="310" />
            </Array>
          </mxGeometry>
        </mxCell>
        <mxCell id="PCAq63UFogYoL67APsC8-74" value="" style="rounded=0;whiteSpace=wrap;html=1;fillColor=#A680B8;fontColor=#ffffff;strokeColor=#314354;" parent="1" vertex="1">
          <mxGeometry x="464" y="320" width="10" height="10" as="geometry" />
        </mxCell>
        <mxCell id="PCAq63UFogYoL67APsC8-75" value="" style="rounded=0;whiteSpace=wrap;html=1;fillColor=#FF9933;fontColor=#ffffff;strokeColor=#314354;" parent="1" vertex="1">
          <mxGeometry x="525" y="350" width="10" height="10" as="geometry" />
        </mxCell>
        <mxCell id="PCAq63UFogYoL67APsC8-76" value="" style="rounded=0;whiteSpace=wrap;html=1;fillColor=#FF9933;fontColor=#ffffff;strokeColor=#314354;" parent="1" vertex="1">
          <mxGeometry x="525" y="340" width="10" height="10" as="geometry" />
        </mxCell>
        <mxCell id="PCAq63UFogYoL67APsC8-77" value="" style="rounded=0;whiteSpace=wrap;html=1;fillColor=#FF9933;fontColor=#ffffff;strokeColor=#314354;" parent="1" vertex="1">
          <mxGeometry x="525" y="330" width="10" height="10" as="geometry" />
        </mxCell>
        <mxCell id="PCAq63UFogYoL67APsC8-78" value="" style="edgeStyle=orthogonalEdgeStyle;rounded=0;orthogonalLoop=1;jettySize=auto;html=1;fontSize=11;strokeWidth=2;entryX=0.5;entryY=1;entryDx=0;entryDy=0;" parent="1" source="PCAq63UFogYoL67APsC8-79" target="PCAq63UFogYoL67APsC8-130" edge="1">
          <mxGeometry relative="1" as="geometry">
            <Array as="points">
              <mxPoint x="530" y="280" />
              <mxPoint x="482" y="280" />
            </Array>
          </mxGeometry>
        </mxCell>
        <mxCell id="PCAq63UFogYoL67APsC8-79" value="" style="rounded=0;whiteSpace=wrap;html=1;fillColor=#FF9933;fontColor=#ffffff;strokeColor=#314354;" parent="1" vertex="1">
          <mxGeometry x="525" y="320" width="10" height="10" as="geometry" />
        </mxCell>
        <mxCell id="PCAq63UFogYoL67APsC8-80" value="" style="rounded=0;whiteSpace=wrap;html=1;fillColor=#A680B8;fontColor=#ffffff;strokeColor=#314354;" parent="1" vertex="1">
          <mxGeometry x="464" y="350" width="10" height="10" as="geometry" />
        </mxCell>
        <mxCell id="PCAq63UFogYoL67APsC8-82" value="" style="rounded=0;whiteSpace=wrap;html=1;fillColor=#E6FFCC;fontColor=#ffffff;strokeColor=#314354;" parent="1" vertex="1">
          <mxGeometry x="578" y="350" width="10" height="10" as="geometry" />
        </mxCell>
        <mxCell id="PCAq63UFogYoL67APsC8-83" value="" style="rounded=0;whiteSpace=wrap;html=1;fillColor=#E6FFCC;fontColor=#ffffff;strokeColor=#314354;" parent="1" vertex="1">
          <mxGeometry x="578" y="340" width="10" height="10" as="geometry" />
        </mxCell>
        <mxCell id="PCAq63UFogYoL67APsC8-84" value="" style="rounded=0;whiteSpace=wrap;html=1;fillColor=#E6FFCC;fontColor=#ffffff;strokeColor=#314354;" parent="1" vertex="1">
          <mxGeometry x="578" y="330" width="10" height="10" as="geometry" />
        </mxCell>
        <mxCell id="PCAq63UFogYoL67APsC8-85" value="" style="edgeStyle=orthogonalEdgeStyle;rounded=0;orthogonalLoop=1;jettySize=auto;html=1;fontSize=11;strokeWidth=2;" parent="1" source="PCAq63UFogYoL67APsC8-86" edge="1">
          <mxGeometry relative="1" as="geometry">
            <mxPoint x="578" y="260" as="targetPoint" />
            <Array as="points">
              <mxPoint x="583" y="290" />
              <mxPoint x="578" y="290" />
            </Array>
          </mxGeometry>
        </mxCell>
        <mxCell id="PCAq63UFogYoL67APsC8-86" value="" style="rounded=0;whiteSpace=wrap;html=1;fillColor=#E6FFCC;fontColor=#ffffff;strokeColor=#314354;" parent="1" vertex="1">
          <mxGeometry x="578" y="320" width="10" height="10" as="geometry" />
        </mxCell>
        <mxCell id="PCAq63UFogYoL67APsC8-87" value="" style="shape=curlyBracket;whiteSpace=wrap;html=1;rounded=1;flipH=1;fillColor=#E6E6E6;gradientColor=#ffffff;rotation=-90;" parent="1" vertex="1">
          <mxGeometry x="356.25" y="340" width="15.5" height="120" as="geometry" />
        </mxCell>
        <mxCell id="PCAq63UFogYoL67APsC8-88" value="Show" style="text;html=1;strokeColor=none;fillColor=none;align=center;verticalAlign=middle;whiteSpace=wrap;rounded=0;fontSize=11;" parent="1" vertex="1">
          <mxGeometry x="438" y="590" width="60" height="30" as="geometry" />
        </mxCell>
        <mxCell id="PCAq63UFogYoL67APsC8-89" value="Video" style="text;html=1;strokeColor=none;fillColor=none;align=center;verticalAlign=middle;whiteSpace=wrap;rounded=0;fontSize=11;" parent="1" vertex="1">
          <mxGeometry x="505" y="590" width="60" height="30" as="geometry" />
        </mxCell>
        <mxCell id="PCAq63UFogYoL67APsC8-90" value="Post" style="text;html=1;strokeColor=none;fillColor=none;align=center;verticalAlign=middle;whiteSpace=wrap;rounded=0;fontSize=11;" parent="1" vertex="1">
          <mxGeometry x="555" y="590" width="60" height="30" as="geometry" />
        </mxCell>
        <mxCell id="PCAq63UFogYoL67APsC8-91" value="" style="edgeStyle=orthogonalEdgeStyle;rounded=0;orthogonalLoop=1;jettySize=auto;html=1;fontSize=11;strokeWidth=2;" parent="1" source="PCAq63UFogYoL67APsC8-92" target="PCAq63UFogYoL67APsC8-94" edge="1">
          <mxGeometry relative="1" as="geometry">
            <Array as="points">
              <mxPoint x="360" y="275" />
              <mxPoint x="400" y="275" />
            </Array>
          </mxGeometry>
        </mxCell>
        <mxCell id="PCAq63UFogYoL67APsC8-92" value="" style="shape=curlyBracket;whiteSpace=wrap;html=1;rounded=1;flipH=1;fillColor=#E6E6E6;gradientColor=#ffffff;rotation=-90;" parent="1" vertex="1">
          <mxGeometry x="350" y="280" width="20" height="50" as="geometry" />
        </mxCell>
        <mxCell id="PCAq63UFogYoL67APsC8-93" value="Show Loss" style="rounded=0;whiteSpace=wrap;html=1;fontSize=11;" parent="1" vertex="1">
          <mxGeometry x="347.5" y="240" width="82.5" height="20" as="geometry" />
        </mxCell>
        <mxCell id="PCAq63UFogYoL67APsC8-94" value="" style="shape=waypoint;sketch=0;size=6;pointerEvents=1;points=[];fillColor=#E6E6E6;resizable=0;rotatable=0;perimeter=centerPerimeter;snapToPoint=1;rounded=1;gradientColor=#ffffff;" parent="1" vertex="1">
          <mxGeometry x="380" y="240" width="40" height="40" as="geometry" />
        </mxCell>
        <mxCell id="PCAq63UFogYoL67APsC8-95" value="" style="ellipse;whiteSpace=wrap;html=1;aspect=fixed;fontSize=6;fillColor=#E6FFCC;fontColor=#ffffff;strokeColor=#314354;direction=west;" parent="1" vertex="1">
          <mxGeometry x="642" y="470" width="10" height="10" as="geometry" />
        </mxCell>
        <mxCell id="PCAq63UFogYoL67APsC8-96" value="" style="ellipse;whiteSpace=wrap;html=1;aspect=fixed;fontSize=6;fillColor=#66B2FF;fontColor=#ffffff;strokeColor=#314354;direction=west;" parent="1" vertex="1">
          <mxGeometry x="690" y="470" width="10" height="10" as="geometry" />
        </mxCell>
        <mxCell id="PCAq63UFogYoL67APsC8-97" value="" style="rounded=0;whiteSpace=wrap;html=1;fillColor=#E6FFCC;fontColor=#ffffff;strokeColor=#314354;" parent="1" vertex="1">
          <mxGeometry x="642" y="440" width="10" height="10" as="geometry" />
        </mxCell>
        <mxCell id="PCAq63UFogYoL67APsC8-98" value="" style="rounded=0;whiteSpace=wrap;html=1;fillColor=#E6FFCC;fontColor=#ffffff;strokeColor=#314354;" parent="1" vertex="1">
          <mxGeometry x="642" y="430" width="10" height="10" as="geometry" />
        </mxCell>
        <mxCell id="PCAq63UFogYoL67APsC8-99" value="" style="rounded=0;whiteSpace=wrap;html=1;fillColor=#E6FFCC;fontColor=#ffffff;strokeColor=#314354;" parent="1" vertex="1">
          <mxGeometry x="642" y="420" width="10" height="10" as="geometry" />
        </mxCell>
        <mxCell id="PCAq63UFogYoL67APsC8-100" value="" style="edgeStyle=orthogonalEdgeStyle;rounded=0;orthogonalLoop=1;jettySize=auto;html=1;fontSize=11;strokeWidth=2;" parent="1" source="PCAq63UFogYoL67APsC8-101" target="PCAq63UFogYoL67APsC8-114" edge="1">
          <mxGeometry relative="1" as="geometry" />
        </mxCell>
        <mxCell id="PCAq63UFogYoL67APsC8-101" value="" style="rounded=0;whiteSpace=wrap;html=1;fillColor=#E6FFCC;fontColor=#ffffff;strokeColor=#314354;" parent="1" vertex="1">
          <mxGeometry x="642" y="410" width="10" height="10" as="geometry" />
        </mxCell>
        <mxCell id="PCAq63UFogYoL67APsC8-102" value="" style="rounded=0;whiteSpace=wrap;html=1;fillColor=#66B2FF;fontColor=#ffffff;strokeColor=#314354;" parent="1" vertex="1">
          <mxGeometry x="690" y="440" width="10" height="10" as="geometry" />
        </mxCell>
        <mxCell id="PCAq63UFogYoL67APsC8-103" value="" style="rounded=0;whiteSpace=wrap;html=1;fillColor=#66B2FF;fontColor=#ffffff;strokeColor=#314354;" parent="1" vertex="1">
          <mxGeometry x="690" y="430" width="10" height="10" as="geometry" />
        </mxCell>
        <mxCell id="PCAq63UFogYoL67APsC8-104" value="" style="rounded=0;whiteSpace=wrap;html=1;fillColor=#66B2FF;fontColor=#ffffff;strokeColor=#314354;" parent="1" vertex="1">
          <mxGeometry x="690" y="420" width="10" height="10" as="geometry" />
        </mxCell>
        <mxCell id="PCAq63UFogYoL67APsC8-105" value="" style="edgeStyle=orthogonalEdgeStyle;rounded=0;orthogonalLoop=1;jettySize=auto;html=1;fontSize=11;strokeWidth=2;" parent="1" source="PCAq63UFogYoL67APsC8-106" target="PCAq63UFogYoL67APsC8-119" edge="1">
          <mxGeometry relative="1" as="geometry" />
        </mxCell>
        <mxCell id="PCAq63UFogYoL67APsC8-106" value="" style="rounded=0;whiteSpace=wrap;html=1;fillColor=#66B2FF;fontColor=#ffffff;strokeColor=#314354;" parent="1" vertex="1">
          <mxGeometry x="690" y="410" width="10" height="10" as="geometry" />
        </mxCell>
        <mxCell id="PCAq63UFogYoL67APsC8-107" value="" style="endArrow=classic;html=1;rounded=0;fontSize=11;strokeWidth=2;" parent="1" edge="1">
          <mxGeometry width="50" height="50" relative="1" as="geometry">
            <mxPoint x="658" y="430" as="sourcePoint" />
            <mxPoint x="688" y="430" as="targetPoint" />
          </mxGeometry>
        </mxCell>
        <mxCell id="PCAq63UFogYoL67APsC8-108" value="" style="rounded=0;whiteSpace=wrap;html=1;fontSize=11;" parent="1" vertex="1">
          <mxGeometry x="620" y="372.5" width="100" height="25" as="geometry" />
        </mxCell>
        <mxCell id="PCAq63UFogYoL67APsC8-109" value="Relation Map" style="text;html=1;strokeColor=none;fillColor=none;align=center;verticalAlign=middle;whiteSpace=wrap;rounded=0;fontSize=11;" parent="1" vertex="1">
          <mxGeometry x="613" y="375.0000000000002" width="110" height="21.75" as="geometry" />
        </mxCell>
        <mxCell id="PCAq63UFogYoL67APsC8-110" value="" style="rounded=0;whiteSpace=wrap;html=1;fillColor=#FF9999;fontColor=#ffffff;strokeColor=#314354;" parent="1" vertex="1">
          <mxGeometry x="642" y="350" width="10" height="10" as="geometry" />
        </mxCell>
        <mxCell id="PCAq63UFogYoL67APsC8-111" value="" style="rounded=0;whiteSpace=wrap;html=1;fillColor=#FF9999;fontColor=#ffffff;strokeColor=#314354;" parent="1" vertex="1">
          <mxGeometry x="642" y="340" width="10" height="10" as="geometry" />
        </mxCell>
        <mxCell id="PCAq63UFogYoL67APsC8-112" value="" style="rounded=0;whiteSpace=wrap;html=1;fillColor=#FF9999;fontColor=#ffffff;strokeColor=#314354;" parent="1" vertex="1">
          <mxGeometry x="642" y="330" width="10" height="10" as="geometry" />
        </mxCell>
        <mxCell id="PCAq63UFogYoL67APsC8-113" value="" style="edgeStyle=orthogonalEdgeStyle;rounded=0;orthogonalLoop=1;jettySize=auto;html=1;fontSize=11;strokeWidth=2;" parent="1" source="PCAq63UFogYoL67APsC8-114" target="PCAq63UFogYoL67APsC8-123" edge="1">
          <mxGeometry relative="1" as="geometry">
            <Array as="points">
              <mxPoint x="647" y="280" />
              <mxPoint x="710" y="280" />
            </Array>
          </mxGeometry>
        </mxCell>
        <mxCell id="PCAq63UFogYoL67APsC8-114" value="" style="rounded=0;whiteSpace=wrap;html=1;fillColor=#FF9999;fontColor=#ffffff;strokeColor=#314354;" parent="1" vertex="1">
          <mxGeometry x="642" y="320" width="10" height="10" as="geometry" />
        </mxCell>
        <mxCell id="PCAq63UFogYoL67APsC8-115" value="" style="rounded=0;whiteSpace=wrap;html=1;fillColor=#C3ABD0;fontColor=#ffffff;strokeColor=#314354;" parent="1" vertex="1">
          <mxGeometry x="690" y="350" width="10" height="10" as="geometry" />
        </mxCell>
        <mxCell id="PCAq63UFogYoL67APsC8-116" value="" style="rounded=0;whiteSpace=wrap;html=1;fillColor=#C3ABD0;fontColor=#ffffff;strokeColor=#314354;" parent="1" vertex="1">
          <mxGeometry x="690" y="340" width="10" height="10" as="geometry" />
        </mxCell>
        <mxCell id="PCAq63UFogYoL67APsC8-117" value="" style="rounded=0;whiteSpace=wrap;html=1;fillColor=#C3ABD0;fontColor=#ffffff;strokeColor=#314354;" parent="1" vertex="1">
          <mxGeometry x="690" y="330" width="10" height="10" as="geometry" />
        </mxCell>
        <mxCell id="PCAq63UFogYoL67APsC8-118" value="" style="edgeStyle=orthogonalEdgeStyle;rounded=0;orthogonalLoop=1;jettySize=auto;html=1;fontSize=11;strokeWidth=2;" parent="1" source="PCAq63UFogYoL67APsC8-119" target="PCAq63UFogYoL67APsC8-123" edge="1">
          <mxGeometry relative="1" as="geometry">
            <Array as="points">
              <mxPoint x="740" y="325" />
              <mxPoint x="740" y="280" />
              <mxPoint x="710" y="280" />
            </Array>
          </mxGeometry>
        </mxCell>
        <mxCell id="PCAq63UFogYoL67APsC8-119" value="" style="rounded=0;whiteSpace=wrap;html=1;fillColor=#C3ABD0;fontColor=#ffffff;strokeColor=#314354;" parent="1" vertex="1">
          <mxGeometry x="690" y="320" width="10" height="10" as="geometry" />
        </mxCell>
        <mxCell id="PCAq63UFogYoL67APsC8-120" value="" style="rounded=0;whiteSpace=wrap;html=1;fontSize=11;" parent="1" vertex="1">
          <mxGeometry x="545" y="240" width="65" height="20" as="geometry" />
        </mxCell>
        <mxCell id="PCAq63UFogYoL67APsC8-121" value="" style="rounded=0;whiteSpace=wrap;html=1;fontSize=11;" parent="1" vertex="1">
          <mxGeometry x="628" y="240" width="162" height="20" as="geometry" />
        </mxCell>
        <mxCell id="PCAq63UFogYoL67APsC8-122" value="Post Loss" style="text;html=1;strokeColor=none;fillColor=none;align=center;verticalAlign=middle;whiteSpace=wrap;rounded=0;fontSize=11;" parent="1" vertex="1">
          <mxGeometry x="548" y="232.5" width="60" height="35" as="geometry" />
        </mxCell>
        <mxCell id="PCAq63UFogYoL67APsC8-123" value="Post-Circle Alignment Loss" style="text;html=1;strokeColor=none;fillColor=none;align=center;verticalAlign=middle;whiteSpace=wrap;rounded=0;fontSize=11;" parent="1" vertex="1">
          <mxGeometry x="630" y="242.5" width="160" height="15" as="geometry" />
        </mxCell>
        <mxCell id="PCAq63UFogYoL67APsC8-124" value="" style="ellipse;whiteSpace=wrap;html=1;aspect=fixed;fontSize=6;fillColor=#A680B8;fontColor=#ffffff;strokeColor=#314354;direction=west;" parent="1" vertex="1">
          <mxGeometry x="464" y="555" width="10" height="10" as="geometry" />
        </mxCell>
        <mxCell id="PCAq63UFogYoL67APsC8-125" value="" style="ellipse;whiteSpace=wrap;html=1;aspect=fixed;fontSize=6;fillColor=#FF9933;fontColor=#ffffff;strokeColor=#314354;direction=west;" parent="1" vertex="1">
          <mxGeometry x="525" y="555" width="10" height="10" as="geometry" />
        </mxCell>
        <mxCell id="PCAq63UFogYoL67APsC8-127" value="" style="ellipse;whiteSpace=wrap;html=1;aspect=fixed;fontSize=6;fillColor=#E6FFCC;fontColor=#ffffff;strokeColor=#314354;direction=west;" parent="1" vertex="1">
          <mxGeometry x="578" y="555" width="10" height="10" as="geometry" />
        </mxCell>
        <mxCell id="PCAq63UFogYoL67APsC8-128" value="Circle" style="text;html=1;strokeColor=none;fillColor=none;align=center;verticalAlign=middle;whiteSpace=wrap;rounded=0;fontSize=11;" parent="1" vertex="1">
          <mxGeometry x="610" y="590" width="60" height="30" as="geometry" />
        </mxCell>
        <mxCell id="PCAq63UFogYoL67APsC8-129" value="" style="rounded=0;whiteSpace=wrap;html=1;fontSize=11;" parent="1" vertex="1">
          <mxGeometry x="449" y="240" width="66" height="20" as="geometry" />
        </mxCell>
        <mxCell id="PCAq63UFogYoL67APsC8-130" value="Video Loss" style="text;html=1;align=center;verticalAlign=middle;whiteSpace=wrap;rounded=0;fontSize=11;" parent="1" vertex="1">
          <mxGeometry x="449" y="237.5" width="64" height="22.5" as="geometry" />
        </mxCell>
        <mxCell id="qock-VG174k8fUYrO86y-2" value="" style="ellipse;whiteSpace=wrap;html=1;aspect=fixed;fontSize=6;fillColor=#66B2FF;fontColor=#ffffff;strokeColor=#314354;direction=west;" vertex="1" parent="1">
          <mxGeometry x="632" y="555" width="10" height="10" as="geometry" />
        </mxCell>
      </root>
    </mxGraphModel>
  </diagram>
</mxfile>
